<svg id="inside" xmlns="http://www.w3.org/2000/svg" xmlns:xlink="http://www.w3.org/1999/xlink" viewBox="0 0 2069.62 2066.55"><defs><style>.cls-1{fill:url(#linear-gradient);}.cls-2{fill:url(#linear-gradient-2);}.cls-3{fill:#f7f2f2;}.cls-4{fill:url(#radial-gradient);}</style><linearGradient id="linear-gradient" x1="444.59" y1="1269.42" x2="1889.02" y2="1269.42" gradientUnits="userSpaceOnUse"><stop offset="1"/><stop offset="1" stop-color="#fff" stop-opacity="0"/></linearGradient><linearGradient id="linear-gradient-2" x1="1719.26" y1="940.28" x2="1969.98" y2="940.28" gradientUnits="userSpaceOnUse"><stop offset="1"/><stop offset="1" stop-opacity="0"/></linearGradient><radialGradient id="radial-gradient" cx="1258.4" cy="1256.87" fx="1836.7392769008163" fy="597.6068176821003" r="903.06" gradientTransform="matrix(0.01, 1, -0.99, 0.01, 2265.91, -235.85)" gradientUnits="userSpaceOnUse"><stop offset="0.09" stop-color="#fff" stop-opacity="0"/><stop offset="0.97" stop-color="#fff" stop-opacity="0"/><stop offset="1" stop-color="#888" stop-opacity="0.47"/><stop offset="1"/></radialGradient></defs><path id="path3" class="cls-1" d="M445.21,1444c-.89-20-.7-37.33-.16-51.19.8-20.82,2.47-36.27,3-41,2.05-18.28,3.1-27.69,6.34-40.53,4.1-16.25,6.22-16.3,12.26-37.79,5.14-18.31,3.48-17.85,8.17-32.68,3.63-11.51,7.43-20.66,13.28-34.73,4.59-11,6.89-16.58,9.42-21.35,6.34-11.93,9.06-13.31,17.13-27.67,5.26-9.36,4.78-10,10.21-19.4s9.79-15.54,13-20.18c11.36-16.55,16.75-27.38,22.77-37.47,6.39-10.7,19.8-26.5,46-58,18.5-22.29,38.65-46.57,64.34-73.29,4.66-4.84,11.85-11.21,22-21.77,14.6-15.12,16.95-19,29-31.32C733.8,883.54,743.56,875,751.6,868c21.18-18.43,21.48-16.13,35.74-29.62,11-10.41,14.43-15.18,28.29-27.53,0,0,8.11-7.31,17.67-14.86,21.6-17,39.11-28,67.4-45.8,30.86-19.37,53.59-33.63,85.79-48.85,27.35-12.94,49.89-20.84,95-36.65,42.21-14.8,62.62-24.56,64.34-21.37,2,3.81-26.63,18.22-61.28,55a323.32,323.32,0,0,0-30.64,39.7c-11.49,17.36-18.27,27.6-23.49,43.21-4.46,13.35-5.35,26-7.14,51.45-1.6,22.67-2.34,34.32,1,49.66,2.39,10.93,5.08,22.58,14.69,33.62,4.21,4.83,14,16,28.2,17.48,17.41,1.79,27-12.66,34.72-8.14,7.09,4.17,6.4,18.84,4.09,32.57v93.64l2,93.64-2,97.72,2,89.57v230c4.85,9.76,23.72,44.79,61.28,55,23.2,6.29,45,.78,63.32-3.86,20.55-5.19,35.84-13.13,46-18.38,25.47-13.21,18-14.89,40.24-25.75,0,0,27.77-13.6,30.23-25.29l0-.1c.07-.4,0-1.48,0-22.29,0-23.41.19-25.25,0-32.57-.39-15.61-1.33-17.18-2-32.58-.75-16.26-.07-22.68,0-38.67.11-23.82-1.28-32.24-2-52.93-1.09-29.48,1-32.66,2-79.39.25-10.9,0-7.18,0-81.43,0-51.65-.06-77.47,0-81.43.28-19.78.72-36,0-61.07-.59-20.66-1.57-33.09-2-38.68-2.35-27.71-3.53-41.56-8.17-55a117,117,0,0,0-30.64-46.82c-21-19.32-41.67-22.89-40.85-26.46,1.39-6,44-11.58,83.74,6.1,21.1,9.4,34.54,22.31,47,16.29,7.48-3.63,6.71-10.28,20.43-22.39,7.09-6.27,9.33-6.29,20.42-14.25,8.19-5.89,11.92-9.43,26.56-22.4,19.17-17,28.75-25.46,32.68-28.5,8.14-6.29,19.84-13.1,42.89-26.46,24-13.9,36-20.86,47-26.46,6.52-3.33,10.16-5,53.11-24.43,26.17-11.82,39.28-17.74,40.85-18.32,17.82-6.63,26.93-8,71.49-18.32,17.83-4.14,32.6-7.68,42.89-10.18L1688.11,833.67l-28.6,38.68-28.6,42.75-18.38,32.57-8.17,95.68v67.18l2,122.14c2,176.88,2.41,245.36,2,260.57-.12,4.82-.08,10,0,20.35.19,26.77,1,29.87,2,32.57,5.84,15,21.19,22,26.55,24.43,14.74,6.69,28,5.37,40.85,4.07,20.33-2,35.08-8.74,47-14.25,8-3.69,10.1-5.29,40.85-24.42,37.93-23.59,38.53-23.53,44.94-28.5,8.9-6.9,19-16.91,38.81-36.65,30.83-30.69,36.62-38,38.81-36.64,4.73,3-13.84,43-34.73,77.36-10.73,17.63-16.4,24.42-51.06,71.25-44.46,60.06-39.4,54.65-51.06,69.21a910.16,910.16,0,0,1-73.54,81.43c-26.12,25.54-42.87,42.33-69.44,61.07-7.35,5.18-19.2,13-42.9,28.5-19.59,12.85-35.83,23.36-47,30.53l-57.19-46.82-28.59-24.43c-14.45-10-23.18-18.35-28.6-24.42-2.12-2.38-6.52-6.12-15.32-13.6-5.23-4.45-8-6.59-11.23-6.13-3.67.52-5.48,4-9.19,9.19-4.22,5.88-9.62,10.82-14.3,16.34-6.81,8-11.16,12.08-19.41,20.43-23.32,23.6-24.17,27.17-46,49-27.93,28-27.15,22.75-35.75,34.72-9.56,13.32-13.72,24.27-25.53,27.58-5.6,1.56-8.64.21-22.47-2-18.87-3.09-19.11-1.54-36.76-4.08-13-1.88-16.16-3.2-50-11.24-35.38-8.39-32.63-7.11-43.91-10.21s-17.63-5.35-55.15-19.4c-62.71-23.49-68.68-26.1-77.62-30.64-8.47-4.31-19.26-10.36-40.85-22.47-17.24-9.67-25.86-14.51-33.7-19.4-18.85-11.79-32.24-22-44.94-31.66-11-8.42-21.06-16.09-33.7-27.58-8.12-7.38-14.75-13.44-22.47-22.47-9.7-11.34-24.39-26.74-21.44-30.63,1.21-1.6,4.27.18,16.34,2,3.18.49,9.27,1,21.44,2,19.39,1.65,21.44,1.42,23.49,1a47.48,47.48,0,0,0,18.39-8.17,59.06,59.06,0,0,0,18.38-20.42,80.23,80.23,0,0,0,5.11-17.37c2.83-16.39-1-25.58-1-48,0-7.59.43-5.46,1-20.42.77-19.53.24-28.72,0-55.15,0-2.68,0-17.79,0-48,0-37.6.07-37,0-44.94-.24-26.27-.76-27.17-1-53.1-.08-7.85,0-6.12,0-51.07,0-19.46,0-29.8,0-43.91,0-37.24-.11-36.58,0-44.94.14-10.28.44-22.17,1-46,.1-4.14.49-19.75-1-39.83-.91-12.2-2-18.69-6.12-25.54-5.12-8.46-12.51-13.45-15.32-15.32a61.78,61.78,0,0,0-15.32-7.14,69.81,69.81,0,0,0-13.28-3.07,53.14,53.14,0,0,0-16.34,0c-3.73.64-3.8,1.14-15.32,5.11-8.21,2.83-8.37,2.64-15.32,5.1-7.88,2.8-11.81,4.2-15.32,6.13-5.62,3.11-7.85,5.68-13.27,10.21-8.24,6.9-11.66,8.14-20.43,14.3-6.64,4.67-9.47,7.32-28.59,24.51-28.92,26-26.27,23.35-29.62,26.56-12.2,11.67-20,20.4-33.7,35.74-20.72,23.19-35.23,41.44-38.81,46-11.53,14.57-19.44,25.45-30.64,40.85-11.61,16-18.37,25.27-26.55,37.79-10.69,16.35-17.08,27.9-25.53,42.89C477.58,1388.36,463.54,1413,445.21,1444Z" transform="translate(-220.53 -220.53)"/><path id="path2" class="cls-2" d="M1719.26,1037.55h138.89l-7.66,78.64h78.13V1102.4h-11.24l-1.53-2.55,8.68-62.3h38.81l6.64-53.61h-34.72a2.85,2.85,0,0,1-2,.34,2.89,2.89,0,0,1-2-2.39q14.8-108.76,29.62-217.53a90.22,90.22,0,0,1-31.66,22c-12.71,5.14-23.83,6-41.46,7.43a279.74,279.74,0,0,1-30.54.74q-65.88,94.21-131.75,188.42Z" transform="translate(-220.53 -220.53)"/><path id="path1" class="cls-3" d="M1793.81,983.43h72l14.81-120a3.49,3.49,0,0,0,.34-3.24,3.43,3.43,0,0,0-2.39-1.87Q1836.2,920.87,1793.81,983.43Z" transform="translate(-220.53 -220.53)"/><ellipse id="round" class="cls-4" cx="1034.81" cy="1033.28" rx="1034.81" ry="1033.28"/></svg>